HIERARCHY
ROOT pelvis
{
  OFFSET 0 100 0
  CHANNELS 6 Xposition Yposition Zposition Zrotation Xrotation Yrotation
  JOINT pelvis_right_femur
  {
    OFFSET -10.78128 -3.44521 -0.5502486
    CHANNELS 3 Zrotation Xrotation Yrotation
    JOINT right_femur_tibia
    {
      OFFSET -0.8047443 -44.0398 -0.1307829
      CHANNELS 3 Zrotation Xrotation Yrotation
      JOINT right_tibia_foot
      {
        OFFSET 3.006224 -47.83518 -5
        CHANNELS 3 Zrotation Xrotation Yrotation
        End Site
        {
          OFFSET 0 -5 15
        }
      }
    }
  }
  JOINT pelvis_left_femur
  {
    OFFSET 10.78128 -3.44521 -0.5502486
    CHANNELS 3 Zrotation Xrotation Yrotation
    JOINT left_femur_tibia
    {
      OFFSET 0.8047443 -44.0398 -0.1307829
      CHANNELS 3 Zrotation Xrotation Yrotation
      JOINT left_tibia_foot
      {
        OFFSET -4.370144 -48.10324 -4.275266
        CHANNELS 3 Zrotation Xrotation Yrotation
        End Site
        {
          OFFSET 0 -5 15
        }
      }
    }
  }
  JOINT pelvis_spine1
  {
    OFFSET 0 6.468898 -3.129235
    CHANNELS 3 Zrotation Xrotation Yrotation
    JOINT spine1
    {
      OFFSET 0 23.15396 4.99043
      CHANNELS 3 Zrotation Xrotation Yrotation
      JOINT spine2
      {
        OFFSET 0 20.79997 -5.064912
        CHANNELS 3 Zrotation Xrotation Yrotation
        JOINT neck
        {
          OFFSET 0 14.38658 9.616178
          CHANNELS 3 Zrotation Xrotation Yrotation
          End Site
          {
            OFFSET 0 20 0
          }
        }
      }
      JOINT right_manubrium
      {
        OFFSET -5.722621 16.35077 3.967754
        CHANNELS 3 Zrotation Xrotation Yrotation
        JOINT right_clavicle
        {
          OFFSET -13.16364 1.694482 -4.693211
          CHANNELS 3 Zrotation Xrotation Yrotation
          JOINT right_humerus
          {
            OFFSET -28.5034 -0.3100689 -2.792744
            CHANNELS 3 Zrotation Xrotation Yrotation
            JOINT right_radius
            {
              OFFSET -25.15693 0.02248979 -1.271978
              CHANNELS 3 Zrotation Xrotation Yrotation
              End Site
              {
                OFFSET -15 0 0
              }
            }
          }
        }
      }
      JOINT left_manubrium
      {
        OFFSET 5.722621 16.35077 3.967754
        CHANNELS 3 Zrotation Xrotation Yrotation
        JOINT left_clavicle
        {
          OFFSET 13.16364 1.694482 -4.693211
          CHANNELS 3 Zrotation Xrotation Yrotation
          JOINT left_humerus
          {
            OFFSET 29.39168 -1.063119 -2.237045
            CHANNELS 3 Zrotation Xrotation Yrotation
            JOINT left_radius
            {
              OFFSET 24.59957 -0.9528479 0.9047498
              CHANNELS 3 Zrotation Xrotation Yrotation
              End Site
              {
                OFFSET 15 -0 -0
              }
            }
          }
        }
      }
    }
  }
}
MOTION
Frames: 13
Frame Time: 0.0416666666667
0 103.5113 0 1.641745 -1.645974 -0.1587164 2.287527 -10.45804 8.95607 -6.992382e-06 35.05135 -4.027201e-07 -6.992699 -18.85803 -4.467872 -7.34133 8.057374 -22.86558 1.078949e-05 5.546567 -1.503455e-05 9.46894 -16.08038 28.74234 -5.005304 -4.504012 4.88514 2.515007 9.187948 -8.102184 1.265251 22.85357 6.395483 3.009421 -23.1981 8.626568 6.130728 -20.11285 11.38097 85.72868 37.13307 -18.38659 1.737243e-06 -5.159999e-07 16.53473 -7.754851 9.223761 4.667856 5.076917 -19.62963 -1.395041 -94.76763 29.94665 23.14053 -3.31539e-06 -1.701496e-06 -15.1022 3.710834 18.2352 9.200066
0.2443125 103.6211 1.393262 1.383342 -1.53055 -0.2081362 2.649006 -13.04876 8.946165 -5.65518e-06 37.24221 -2.036822e-07 -6.800384 -17.72996 -4.439159 -7.214705 9.387025 -22.89959 9.886389e-06 5.43014 -1.314226e-05 8.843715 -16.81658 27.65419 -4.700405 -4.105829 4.606608 2.500786 9.223799 -8.19435 1.209098 22.61953 6.60571 3.055368 -23.42109 8.784146 6.255784 -19.99996 11.4512 86.23296 36.86206 -18.94113 1.667768e-06 -4.87058e-07 16.53298 -7.534081 9.303102 4.594989 5.041882 -19.62407 -1.623618 -94.70989 30.03787 23.11437 -2.69659e-06 -1.516029e-06 -15.56462 3.505289 17.79848 9.558865
0.5178251 103.7362 2.863377 1.046954 -1.220146 -0.1123087 3.178304 -16.02936 8.791157 -4.719559e-06 37.92505 2.898711e-07 -6.683497 -16.32292 -4.251255 -7.006984 10.60818 -22.74971 8.745718e-06 5.369632 -1.08187e-05 7.974662 -17.68461 26.35695 -4.307358 -3.599987 4.301383 2.534588 9.218868 -8.267973 1.128293 22.32547 6.892388 3.182608 -23.7636 8.938975 6.332337 -19.83666 11.53447 86.6709 36.58418 -19.50811 1.592346e-06 -4.327869e-07 16.35684 -7.387939 9.33554 4.617349 5.133935 -19.71194 -1.851085 -94.60197 30.04648 22.96457 -1.979102e-06 -1.055387e-06 -16.30385 3.389534 17.2991 9.816802
0.8082671 103.7752 4.453834 0.6858163 -0.7191449 0.0911535 3.808302 -19.10276 8.516346 -4.447388e-06 36.75161 1.093154e-06 -6.618261 -14.69203 -3.899872 -6.770598 11.60906 -22.43033 7.529441e-06 5.338067 -8.542303e-06 6.997112 -18.62761 25.06324 -3.892824 -3.064974 4.018256 2.622671 9.188091 -8.320072 1.027518 21.98482 7.244187 3.408391 -24.20128 9.069441 6.363193 -19.63033 11.63243 86.9598 36.3533 -20.05687 1.551153e-06 -3.904503e-07 15.97863 -7.372003 9.299523 4.747758 5.380507 -19.918 -2.049077 -94.42135 29.9352 22.65853 -1.264905e-06 -3.161006e-07 -17.3101 3.398238 16.79164 9.915042
1.100544 103.6785 6.253397 0.3288564 -0.07320153 0.3643177 4.474903 -22.13045 8.15039 -4.648389e-06 34.00239 1.888114e-06 -6.53227 -12.82023 -3.453701 -6.534985 12.52597 -21.94621 6.470817e-06 5.487161 -6.577922e-06 5.880548 -19.61084 23.79971 -3.485015 -2.56249 3.76925 2.747197 9.12877 -8.359323 0.9312958 21.62981 7.63612 3.721233 -24.68674 9.178783 6.344253 -19.34893 11.72263 87.23999 36.1283 -20.67403 1.519613e-06 -3.71694e-07 15.38215 -7.53625 9.214358 4.968298 5.770682 -20.23564 -2.207749 -94.20815 29.72593 22.15091 -5.941435e-07 5.624142e-07 -18.57568 3.481364 16.26537 9.919904
1.381855 103.3989 8.28514 -0.01122553 0.6521526 0.6631432 5.137869 -24.84326 7.75276 -5.247475e-06 30.03707 2.682833e-06 -6.483988 -10.93624 -2.943039 -6.309043 13.19164 -21.36335 5.617221e-06 5.757178 -5.043456e-06 4.767562 -20.50543 22.66753 -3.109161 -2.109147 3.56928 2.901612 9.052114 -8.374954 0.8386495 21.26208 8.026743 4.08048 -25.17706 9.250838 6.293287 -19.03848 11.80426 87.32963 35.96435 -21.20436 1.506978e-06 -3.568114e-07 14.66427 -7.789388 9.084357 5.242925 6.239762 -20.59843 -2.313587 -93.91925 29.43734 21.54745 4.520717e-09 1.531292e-06 -19.89345 3.633642 15.77132 9.81445
1.64124 102.9494 10.64365 -0.3618826 1.437112 0.9703574 5.759364 -27.20955 7.321728 -5.684741e-06 25.62767 3.043586e-06 -6.497477 -9.158971 -2.455818 -6.054571 13.85569 -20.68416 5.210899e-06 6.344687 -3.516092e-06 3.534018 -21.18074 21.4383 -2.737671 -1.758327 3.377876 3.068185 8.920529 -8.405253 0.7656838 20.90916 8.364675 4.421566 -25.64783 9.293622 6.208355 -18.66532 11.83143 87.46208 35.84677 -21.76299 1.358636e-06 -2.71087e-07 13.83746 -8.068316 8.995245 5.51105 6.693437 -20.96312 -2.363798 -93.57667 29.14966 20.85925 5.822856e-07 2.29251e-06 -21.20467 3.796232 15.28927 9.689103
1.873526 102.3729 13.3673 -0.7044526 2.127385 1.283006 6.272514 -29.02873 6.894229 -5.749247e-06 21.69054 3.073251e-06 -6.609587 -7.744939 -2.070513 -5.77585 14.42266 -19.96259 5.078985e-06 7.329001 -1.826322e-06 2.259149 -21.50867 20.12746 -2.379241 -1.488507 3.188486 3.210884 8.748141 -8.440893 0.7145343 20.62393 8.600695 4.674329 -26.00935 9.299311 6.099168 -18.25967 11.79893 87.61881 35.76217 -22.25572 1.084171e-06 -9.420785e-08 13.00822 -8.298137 8.975409 5.720514 7.028225 -21.25781 -2.382024 -93.1575 28.93484 20.15029 1.112571e-06 2.737845e-06 -22.3214 3.925689 14.84256 9.590987
2.091829 101.7982 16.59394 -1.08493 2.728951 1.626327 6.678537 -30.06506 6.505807 -4.953482e-06 19.15633 2.447137e-06 -6.812319 -6.667116 -1.826058 -5.44063 14.97434 -19.20092 5.728558e-06 9.030315 1.460835e-07 0.7862806 -21.2519 18.51079 -1.985663 -1.362515 2.987841 3.306368 8.522532 -8.495443 0.7002312 20.39104 8.690816 4.792393 -26.28243 9.270356 5.989021 -17.83359 11.68086 87.95386 35.7045 -22.69702 4.917164e-07 2.890326e-07 12.2807 -8.436328 9.125686 5.858184 7.126122 -21.38408 -2.360133 -92.80518 28.83567 19.65116 1.683316e-06 2.574605e-06 -23.01816 3.916197 14.37588 9.677963
2.314203 101.3869 20.37666 -1.482803 3.142795 2.017198 6.969475 -30.13291 6.195336 -3.223108e-06 18.49297 1.433195e-06 -7.189106 -5.905968 -1.715327 -5.077894 15.31312 -18.4419 7.147761e-06 11.72362 2.070735e-06 -0.6901817 -20.26709 16.73642 -1.581306 -1.354446 2.786872 3.348356 8.307715 -8.553634 0.7013331 20.21124 8.633118 4.773374 -26.44219 9.180576 5.925267 -17.40492 11.51297 88.27488 35.75271 -22.96775 -3.721625e-07 8.958837e-07 11.63917 -8.425167 9.430698 5.905774 6.919805 -21.31363 -2.32791 -92.41939 28.83983 19.4303 2.303097e-06 1.880004e-06 -23.11761 3.801656 13.92497 9.897549
2.55507 101.2743 24.70521 -1.891292 3.292891 2.448322 7.256768 -29.36607 6.031566 -7.881436e-07 19.27309 2.439449e-07 -7.719927 -5.47224 -1.74354 -4.674593 15.29142 -17.67656 9.013265e-06 15.65897 3.53076e-06 -2.125473 -18.62255 14.9512 -1.138536 -1.375596 2.611724 3.341901 8.156655 -8.588272 0.7223108 20.08804 8.440905 4.635967 -26.4718 9.031837 5.893512 -17.00442 11.34197 88.53588 35.81652 -23.05758 -1.345834e-06 1.658687e-06 11.10942 -8.269801 9.851382 5.852918 6.458504 -21.08219 -2.314706 -92.04703 28.90926 19.48925 2.938843e-06 8.665293e-07 -22.68925 3.590733 13.49375 10.22835
2.819358 101.5435 29.52255 -2.258913 3.161865 2.866719 7.611182 -27.66392 6.022831 1.89981e-06 20.42628 -1.012886e-06 -8.330588 -5.531427 -1.846675 -4.238179 14.46373 -16.81765 1.073065e-05 21.18618 4.117074e-06 -3.482981 -16.3972 13.37936 -0.6544548 -1.370015 2.571531 3.285064 8.116942 -8.55367 0.7591279 20.05486 8.147022 4.431877 -26.35563 8.812678 5.870044 -16.68298 11.2324 88.7097 35.84311 -22.97129 -2.180852e-06 2.408462e-06 10.73833 -8.082591 10.32191 5.728065 5.845346 -20.78192 -2.321884 -91.81942 28.98153 19.81637 3.476366e-06 -2.105981e-07 -21.97637 3.309241 13.08144 10.63328
3.08437 102.2287 34.61397 -2.480551 2.663675 3.18419 8.008202 -25.19024 6.161707 4.335958e-06 21.32363 -1.856628e-06 -8.992029 -6.196212 -1.998782 -3.829994 12.58346 -15.87589 1.157005e-05 28.41525 3.551145e-06 -4.558841 -13.82546 12.33106 -0.1989844 -1.243518 2.724305 3.178675 8.247204 -8.42109 0.7847358 20.1681 7.812252 4.219885 -26.02691 8.514287 5.873982 -16.42104 11.24922 88.63828 35.86629 -22.72398 -2.545881e-06 2.938384e-06 10.42025 -7.901908 10.71106 5.504881 5.175746 -20.52507 -2.384583 -91.58899 29.03764 20.15773 3.763223e-06 -1.004618e-06 -21.25683 3.053982 12.73371 10.96998
